<?xml version="1.0" encoding="utf-8"?>
<!-- Generator: Adobe Illustrator 16.0.0, SVG Export Plug-In . SVG Version: 6.00 Build 0)  -->
<!DOCTYPE svg PUBLIC "-//W3C//DTD SVG 1.1//EN" "http://www.w3.org/Graphics/SVG/1.1/DTD/svg11.dtd">
<svg version="1.1" id="Layer_1" xmlns="http://www.w3.org/2000/svg" xmlns:xlink="http://www.w3.org/1999/xlink" x="0px" y="0px"
	 width="380px" height="196px" viewBox="0 0 380 196" enable-background="new 0 0 380 196" xml:space="preserve">
<g>
	<g>
		<path fill="#33359A" d="M74.159,3.698c3.268,0,13.888,0.49,22.548,0.49c8.823,0,18.953-0.49,23.365-0.49
			c0.653,0.98,0.817,5.229,0,6.373c-4.412,0.49-7.353,0.817-9.64,1.47c-3.921,0.98-4.575,2.941-4.902,7.843
			c-0.49,7.026-0.327,18.79-0.327,33.168c0,15.195,0.164,30.554,0.49,36.273c0.163,5.065,0.98,7.353,6.209,8.66
			c2.451,0.49,6.208,1.144,10.947,1.797c0.817,0.654,0.327,5.883-0.49,6.536c-3.595,0-15.359-0.49-24.019-0.49
			c-9.64,0-21.731,0.49-24.672,0.49c-0.98-0.49-0.98-5.882-0.163-6.536c4.412-0.49,6.699-0.816,9.15-1.307
			c5.229-1.307,5.882-3.595,6.372-6.862c0.654-4.738,0.49-14.378,0.49-41.175c0-13.725,0.164-23.038-0.327-30.717
			c-0.327-4.412-0.817-6.209-4.249-7.189c-2.941-0.817-6.045-1.307-10.947-1.96C73.179,9.253,73.506,4.515,74.159,3.698z"/>
		<path fill="#33359A" d="M134.12,3.698c1.471,0,8.17,0.49,19.28,0.49c10.457,0,18.954-0.327,29.083-0.327
			c12.581,0,29.901,4.575,29.901,23.528c0,9.313-6.536,16.829-15.033,20.424c-0.49,0.164-0.49,0.49,0,0.653
			c12.092,3.104,22.712,10.621,22.712,24.999c0,14.052-8.659,22.875-21.241,28.431c-7.68,3.431-17.156,4.574-26.796,4.574
			c-7.353,0-29.41-0.816-40.357-0.653c-1.144-0.49-1.307-5.719-0.327-6.536c2.614-0.163,8.496-0.653,11.274-1.47
			c3.921-0.98,5.229-1.96,5.719-7.843c0.327-5.065,0.327-23.202,0.327-36.109c0-17.646,0.164-29.574,0-35.456
			c-0.164-4.575-1.797-6.046-4.902-6.863c-2.451-0.49-6.536-0.98-9.803-1.47C133.14,9.253,133.303,4.352,134.12,3.698z
			 M203.07,77.061c0-14.378-10.457-22.548-29.573-22.548c-0.817,0-6.862-0.164-8.333,0.163c-0.49,0.164-0.98,0.49-0.98,0.817
			c0,10.294-0.163,26.796,0.327,33.332c0.327,2.778,2.287,6.699,4.738,7.843c2.614,1.47,8.496,1.797,12.581,1.797
			C193.104,98.465,203.07,92.092,203.07,77.061z M165.981,11.704c-0.653,0.163-1.47,1.797-1.47,2.614
			c-0.164,5.882-0.327,21.241-0.327,31.861c0,0.327,0.49,0.817,0.817,0.817c2.125,0.164,7.353,0.327,11.765,0.327
			c6.208,0,9.803-0.817,11.764-1.797c5.229-2.614,7.68-8.333,7.68-14.542c0-14.215-9.804-19.607-24.346-19.607
			C170.883,11.377,168.105,11.377,165.981,11.704z"/>
		<path fill="#33359A" d="M254.375,95.851c4.084,3.268,9.967,4.738,15.848,4.738c7.026,0,16.994-3.921,16.994-16.339
			c0-10.13-6.209-14.542-21.404-23.038c-15.686-8.66-25.49-16.339-25.49-31.698c0-18.136,14.705-28.267,33.169-28.267
			c12.417,0,19.444,2.288,26.632,3.104C298.98,9.743,298,20.364,297.346,28.37c-0.49,1.144-5.555,1.144-6.371,0.163
			c-0.98-8.66-2.287-13.888-6.047-16.666c-3.92-2.777-9.148-3.594-13.725-3.594c-11.109,0-16.502,8.66-16.502,15.686
			c0,9.313,4.085,13.234,11.273,17.81c6.699,4.248,15.85,8.169,21.732,11.601c9.148,5.392,15.357,12.254,15.357,24.019
			c0,15.686-13.398,30.88-37.742,30.88c-10.457,0-20.588-3.594-24.836-5.229c-1.471-1.96-4.902-20.097-5.393-26.142
			c0.327-1.47,5.883-2.777,6.863-2.124C245.061,84.577,248.492,91.603,254.375,95.851z"/>
	</g>
</g>
<rect y="115.5" fill="#EF1C22" width="380" height="43"/>
<g>
	<path fill="#FFFFFF" d="M4.8,147.73v-21.475h4.336v21.475H4.8z"/>
	<path fill="#FFFFFF" d="M27.007,139.834l4.204,1.334c-0.645,2.344-1.716,4.084-3.215,5.223c-1.499,1.137-3.401,1.705-5.706,1.705
		c-2.852,0-5.195-0.973-7.031-2.922c-1.836-1.947-2.754-4.611-2.754-7.99c0-3.574,0.923-6.35,2.769-8.328
		c1.846-1.977,4.272-2.967,7.28-2.967c2.627,0,4.761,0.777,6.401,2.33c0.977,0.918,1.709,2.236,2.197,3.955l-4.292,1.025
		c-0.254-1.113-0.784-1.992-1.589-2.637s-1.785-0.967-2.937-0.967c-1.592,0-2.883,0.57-3.875,1.713s-1.487,2.994-1.487,5.553
		c0,2.715,0.488,4.648,1.465,5.801s2.246,1.729,3.809,1.729c1.152,0,2.144-0.367,2.974-1.1S26.646,141.406,27.007,139.834z"/>
	<path fill="#FFFFFF" d="M34.961,147.73v-21.475h14.722v3.633H39.297v5.082h8.965v3.633h-8.965v9.127H34.961z"/>
	<path fill="#FFFFFF" d="M70.967,147.73H66.25l-1.875-4.879h-8.584l-1.772,4.879h-4.6l8.364-21.475h4.585L70.967,147.73z
		 M62.983,139.234l-2.959-7.969l-2.9,7.969H62.983z"/>
	<path fill="#FFFFFF" d="M73.135,147.73v-21.475h4.336v21.475H73.135z"/>
	<path fill="#FFFFFF" d="M89.951,126.256h8.584c1.699,0,2.966,0.07,3.801,0.213c0.835,0.141,1.582,0.436,2.241,0.885
		c0.659,0.449,1.208,1.049,1.648,1.795c0.439,0.748,0.659,1.584,0.659,2.512c0,1.006-0.271,1.93-0.813,2.77
		c-0.543,0.84-1.277,1.469-2.205,1.889c1.309,0.381,2.314,1.031,3.018,1.949s1.055,1.996,1.055,3.236
		c0,0.977-0.227,1.928-0.682,2.85c-0.453,0.924-1.074,1.66-1.859,2.213c-0.787,0.551-1.756,0.891-2.908,1.018
		c-0.723,0.078-2.466,0.127-5.229,0.146h-7.31V126.256z M94.287,129.83v4.965h2.842c1.689,0,2.739-0.023,3.149-0.072
		c0.742-0.088,1.326-0.344,1.75-0.77c0.425-0.424,0.637-0.984,0.637-1.678c0-0.664-0.183-1.203-0.549-1.617
		c-0.366-0.416-0.911-0.668-1.633-0.756c-0.43-0.049-1.665-0.072-3.706-0.072H94.287z M94.287,138.369v5.742h4.014
		c1.563,0,2.554-0.043,2.974-0.131c0.645-0.117,1.169-0.402,1.575-0.857c0.405-0.453,0.608-1.063,0.608-1.824
		c0-0.645-0.156-1.191-0.469-1.641s-0.764-0.775-1.355-0.98s-1.873-0.309-3.845-0.309H94.287z"/>
	<path fill="#FFFFFF" d="M111.572,126.256h4.336v11.631c0,1.846,0.054,3.041,0.161,3.588c0.186,0.879,0.627,1.586,1.326,2.117
		c0.697,0.533,1.652,0.799,2.863,0.799c1.23,0,2.158-0.252,2.783-0.754c0.625-0.504,1.001-1.121,1.128-1.854s0.19-1.949,0.19-3.648
		v-11.879h4.336v11.279c0,2.578-0.117,4.398-0.352,5.463s-0.666,1.963-1.297,2.695c-0.629,0.732-1.472,1.316-2.526,1.752
		c-1.055,0.434-2.432,0.65-4.131,0.65c-2.051,0-3.606-0.236-4.665-0.709c-1.061-0.475-1.897-1.09-2.513-1.846
		c-0.615-0.758-1.021-1.551-1.216-2.381c-0.283-1.23-0.425-3.047-0.425-5.449V126.256z"/>
	<path fill="#FFFFFF" d="M132.168,140.742l4.219-0.41c0.254,1.416,0.77,2.457,1.545,3.121c0.777,0.664,1.824,0.996,3.143,0.996
		c1.396,0,2.448-0.295,3.156-0.887c0.708-0.59,1.063-1.281,1.063-2.072c0-0.508-0.149-0.939-0.447-1.297
		c-0.298-0.355-0.817-0.666-1.56-0.93c-0.508-0.176-1.665-0.488-3.472-0.938c-2.324-0.576-3.955-1.285-4.893-2.125
		c-1.318-1.182-1.978-2.621-1.978-4.32c0-1.094,0.31-2.117,0.931-3.068c0.619-0.953,1.513-1.678,2.68-2.176s2.576-0.748,4.227-0.748
		c2.695,0,4.725,0.592,6.086,1.773c1.363,1.182,2.078,2.758,2.146,4.73l-4.336,0.191c-0.186-1.104-0.584-1.896-1.193-2.381
		c-0.611-0.482-1.526-0.725-2.747-0.725c-1.26,0-2.246,0.258-2.959,0.775c-0.459,0.332-0.688,0.777-0.688,1.334
		c0,0.508,0.215,0.941,0.645,1.303c0.547,0.459,1.875,0.938,3.984,1.436s3.67,1.014,4.68,1.547c1.012,0.531,1.803,1.26,2.373,2.182
		c0.572,0.924,0.857,2.063,0.857,3.42c0,1.23-0.342,2.383-1.025,3.457s-1.65,1.873-2.9,2.396c-1.25,0.521-2.808,0.783-4.673,0.783
		c-2.715,0-4.8-0.627-6.255-1.883C133.32,144.975,132.451,143.145,132.168,140.742z"/>
	<path fill="#FFFFFF" d="M153.145,147.73v-21.475h4.336v21.475H153.145z"/>
	<path fill="#FFFFFF" d="M161.655,147.73v-21.475h4.219l8.789,14.34v-14.34h4.028v21.475h-4.351l-8.657-14.004v14.004H161.655z"/>
	<path fill="#FFFFFF" d="M183.276,147.73v-21.475h15.923v3.633h-11.587v4.76h10.781v3.619h-10.781v5.844h11.997v3.619H183.276z"/>
	<path fill="#FFFFFF" d="M202.188,140.742l4.219-0.41c0.254,1.416,0.77,2.457,1.545,3.121c0.777,0.664,1.824,0.996,3.143,0.996
		c1.396,0,2.448-0.295,3.156-0.887c0.708-0.59,1.063-1.281,1.063-2.072c0-0.508-0.149-0.939-0.447-1.297
		c-0.298-0.355-0.817-0.666-1.56-0.93c-0.508-0.176-1.665-0.488-3.472-0.938c-2.324-0.576-3.955-1.285-4.893-2.125
		c-1.318-1.182-1.978-2.621-1.978-4.32c0-1.094,0.31-2.117,0.931-3.068c0.619-0.953,1.513-1.678,2.68-2.176s2.576-0.748,4.227-0.748
		c2.695,0,4.725,0.592,6.086,1.773c1.363,1.182,2.078,2.758,2.146,4.73l-4.336,0.191c-0.186-1.104-0.584-1.896-1.193-2.381
		c-0.611-0.482-1.526-0.725-2.747-0.725c-1.26,0-2.246,0.258-2.959,0.775c-0.459,0.332-0.688,0.777-0.688,1.334
		c0,0.508,0.215,0.941,0.645,1.303c0.547,0.459,1.875,0.938,3.984,1.436s3.67,1.014,4.68,1.547c1.012,0.531,1.803,1.26,2.373,2.182
		c0.572,0.924,0.857,2.063,0.857,3.42c0,1.23-0.342,2.383-1.025,3.457s-1.65,1.873-2.9,2.396c-1.25,0.521-2.808,0.783-4.673,0.783
		c-2.715,0-4.8-0.627-6.255-1.883C203.34,144.975,202.471,143.145,202.188,140.742z"/>
	<path fill="#FFFFFF" d="M222.197,140.742l4.219-0.41c0.254,1.416,0.77,2.457,1.545,3.121c0.777,0.664,1.824,0.996,3.143,0.996
		c1.396,0,2.448-0.295,3.156-0.887c0.708-0.59,1.063-1.281,1.063-2.072c0-0.508-0.149-0.939-0.447-1.297
		c-0.298-0.355-0.817-0.666-1.56-0.93c-0.508-0.176-1.665-0.488-3.472-0.938c-2.324-0.576-3.955-1.285-4.893-2.125
		c-1.318-1.182-1.978-2.621-1.978-4.32c0-1.094,0.31-2.117,0.931-3.068c0.619-0.953,1.513-1.678,2.68-2.176s2.576-0.748,4.227-0.748
		c2.695,0,4.725,0.592,6.086,1.773c1.363,1.182,2.078,2.758,2.146,4.73l-4.336,0.191c-0.186-1.104-0.584-1.896-1.193-2.381
		c-0.611-0.482-1.526-0.725-2.747-0.725c-1.26,0-2.246,0.258-2.959,0.775c-0.459,0.332-0.688,0.777-0.688,1.334
		c0,0.508,0.215,0.941,0.645,1.303c0.547,0.459,1.875,0.938,3.984,1.436s3.67,1.014,4.68,1.547c1.012,0.531,1.803,1.26,2.373,2.182
		c0.572,0.924,0.857,2.063,0.857,3.42c0,1.23-0.342,2.383-1.025,3.457s-1.65,1.873-2.9,2.396c-1.25,0.521-2.808,0.783-4.673,0.783
		c-2.715,0-4.8-0.627-6.255-1.883C223.35,144.975,222.48,143.145,222.197,140.742z"/>
	<path fill="#FFFFFF" d="M250.542,140.742l4.219-0.41c0.254,1.416,0.77,2.457,1.545,3.121c0.777,0.664,1.824,0.996,3.143,0.996
		c1.396,0,2.448-0.295,3.156-0.887c0.708-0.59,1.063-1.281,1.063-2.072c0-0.508-0.149-0.939-0.447-1.297
		c-0.298-0.355-0.817-0.666-1.56-0.93c-0.508-0.176-1.665-0.488-3.472-0.938c-2.324-0.576-3.955-1.285-4.893-2.125
		c-1.318-1.182-1.978-2.621-1.978-4.32c0-1.094,0.31-2.117,0.931-3.068c0.619-0.953,1.513-1.678,2.68-2.176s2.576-0.748,4.227-0.748
		c2.695,0,4.725,0.592,6.086,1.773c1.363,1.182,2.078,2.758,2.146,4.73l-4.336,0.191c-0.186-1.104-0.584-1.896-1.193-2.381
		c-0.611-0.482-1.526-0.725-2.747-0.725c-1.26,0-2.246,0.258-2.959,0.775c-0.459,0.332-0.688,0.777-0.688,1.334
		c0,0.508,0.215,0.941,0.645,1.303c0.547,0.459,1.875,0.938,3.984,1.436s3.67,1.014,4.68,1.547c1.012,0.531,1.803,1.26,2.373,2.182
		c0.572,0.924,0.857,2.063,0.857,3.42c0,1.23-0.342,2.383-1.025,3.457s-1.65,1.873-2.9,2.396c-1.25,0.521-2.808,0.783-4.673,0.783
		c-2.715,0-4.8-0.627-6.255-1.883C251.694,144.975,250.825,143.145,250.542,140.742z"/>
	<path fill="#FFFFFF" d="M285.391,139.834l4.204,1.334c-0.645,2.344-1.717,4.084-3.215,5.223c-1.5,1.137-3.401,1.705-5.706,1.705
		c-2.852,0-5.195-0.973-7.031-2.922c-1.836-1.947-2.754-4.611-2.754-7.99c0-3.574,0.923-6.35,2.769-8.328
		c1.846-1.977,4.272-2.967,7.28-2.967c2.627,0,4.761,0.777,6.401,2.33c0.977,0.918,1.709,2.236,2.197,3.955l-4.292,1.025
		c-0.254-1.113-0.784-1.992-1.589-2.637c-0.807-0.645-1.785-0.967-2.938-0.967c-1.592,0-2.884,0.57-3.875,1.713
		s-1.486,2.994-1.486,5.553c0,2.715,0.488,4.648,1.465,5.801s2.246,1.729,3.809,1.729c1.152,0,2.144-0.367,2.974-1.1
		S285.029,141.406,285.391,139.834z"/>
	<path fill="#FFFFFF" d="M293.33,147.73v-21.475h4.336v8.451h8.496v-8.451h4.336v21.475h-4.336v-9.391h-8.496v9.391H293.33z"/>
	<path fill="#FFFFFF" d="M314.102,137.125c0-2.188,0.327-4.023,0.981-5.508c0.488-1.094,1.154-2.076,2-2.945
		c0.844-0.869,1.77-1.514,2.775-1.934c1.338-0.566,2.881-0.85,4.629-0.85c3.164,0,5.695,0.982,7.596,2.945
		c1.898,1.963,2.849,4.691,2.849,8.188c0,3.467-0.942,6.18-2.827,8.139c-1.885,1.957-4.404,2.936-7.559,2.936
		c-3.193,0-5.732-0.973-7.617-2.922C315.044,143.227,314.102,140.543,314.102,137.125z M318.569,136.979
		c0,2.432,0.562,4.275,1.685,5.529c1.123,1.256,2.549,1.883,4.277,1.883s3.146-0.623,4.255-1.867
		c1.108-1.246,1.663-3.113,1.663-5.604c0-2.461-0.54-4.297-1.618-5.508c-1.08-1.211-2.513-1.816-4.3-1.816s-3.228,0.613-4.321,1.838
		C319.116,132.66,318.569,134.508,318.569,136.979z"/>
	<path fill="#FFFFFF" d="M337.437,137.125c0-2.188,0.327-4.023,0.981-5.508c0.488-1.094,1.154-2.076,2-2.945
		c0.844-0.869,1.77-1.514,2.775-1.934c1.338-0.566,2.881-0.85,4.629-0.85c3.164,0,5.695,0.982,7.596,2.945
		c1.898,1.963,2.849,4.691,2.849,8.188c0,3.467-0.942,6.18-2.827,8.139c-1.885,1.957-4.404,2.936-7.559,2.936
		c-3.193,0-5.732-0.973-7.617-2.922C338.379,143.227,337.437,140.543,337.437,137.125z M341.904,136.979
		c0,2.432,0.562,4.275,1.685,5.529c1.123,1.256,2.549,1.883,4.277,1.883s3.146-0.623,4.255-1.867
		c1.108-1.246,1.663-3.113,1.663-5.604c0-2.461-0.54-4.297-1.618-5.508c-1.08-1.211-2.513-1.816-4.3-1.816s-3.228,0.613-4.321,1.838
		C342.451,132.66,341.904,134.508,341.904,136.979z"/>
	<path fill="#FFFFFF" d="M361.768,147.73v-21.299h4.336v17.68h10.781v3.619H361.768z"/>
</g>
<g>
	<text transform="matrix(1 0 0 1 307.7891 25.6094)" fill="#33359A" font-family="'Georgia-Bold'" font-size="30">®</text>
</g>
<g>
	<g>
		<path fill="#33359A" d="M119.021,188.687v-21.475h2.842v8.818h11.162v-8.818h2.842v21.475h-2.842v-10.122h-11.162v10.122H119.021z
			"/>
		<path fill="#33359A" d="M140.144,194.678l-0.293-2.476c0.576,0.156,1.079,0.234,1.509,0.234c0.586,0,1.055-0.098,1.406-0.293
			s0.64-0.469,0.864-0.82c0.166-0.264,0.435-0.918,0.806-1.963c0.049-0.146,0.127-0.361,0.234-0.645l-5.903-15.586h2.842
			l3.237,9.009c0.42,1.143,0.796,2.344,1.128,3.604c0.303-1.211,0.664-2.393,1.084-3.545l3.325-9.067h2.637l-5.918,15.82
			c-0.635,1.709-1.128,2.886-1.479,3.53c-0.469,0.869-1.006,1.507-1.611,1.911c-0.605,0.406-1.328,0.608-2.168,0.608
			C141.335,195,140.769,194.893,140.144,194.678z"/>
		<path fill="#33359A" d="M165.354,188.687v-1.963c-0.986,1.543-2.437,2.314-4.351,2.314c-1.24,0-2.38-0.342-3.42-1.025
			s-1.846-1.639-2.417-2.863c-0.571-1.227-0.857-2.635-0.857-4.227c0-1.553,0.259-2.961,0.776-4.227
			c0.518-1.264,1.294-2.233,2.329-2.907s2.192-1.011,3.472-1.011c0.938,0,1.772,0.197,2.505,0.594
			c0.732,0.395,1.328,0.91,1.787,1.545v-7.705h2.622v21.475H165.354z M157.019,180.923c0,1.992,0.42,3.481,1.26,4.468
			s1.831,1.479,2.974,1.479c1.152,0,2.131-0.471,2.937-1.414c0.806-0.941,1.208-2.38,1.208-4.313c0-2.129-0.41-3.691-1.23-4.688
			s-1.831-1.494-3.032-1.494c-1.172,0-2.151,0.479-2.937,1.436S157.019,178.862,157.019,180.923z"/>
		<path fill="#33359A" d="M182.595,183.677l2.725,0.337c-0.43,1.592-1.226,2.827-2.388,3.706s-2.646,1.318-4.453,1.318
			c-2.275,0-4.08-0.701-5.413-2.102c-1.333-1.402-2-3.367-2-5.896c0-2.617,0.674-4.648,2.021-6.094s3.096-2.168,5.244-2.168
			c2.08,0,3.779,0.708,5.098,2.124s1.978,3.408,1.978,5.977c0,0.156-0.005,0.391-0.015,0.703h-11.602
			c0.098,1.709,0.581,3.018,1.45,3.926s1.953,1.362,3.252,1.362c0.967,0,1.792-0.254,2.476-0.762S182.195,184.79,182.595,183.677z
			 M173.938,179.414h8.687c-0.117-1.309-0.449-2.29-0.996-2.944c-0.84-1.016-1.929-1.523-3.267-1.523
			c-1.211,0-2.229,0.405-3.054,1.216S174.026,178.057,173.938,179.414z"/>
		<path fill="#33359A" d="M188.601,188.687V173.13h2.373v2.358c0.606-1.104,1.165-1.831,1.677-2.183s1.077-0.527,1.692-0.527
			c0.889,0,1.791,0.283,2.709,0.85l-0.908,2.446c-0.645-0.381-1.289-0.571-1.934-0.571c-0.576,0-1.094,0.174-1.553,0.52
			c-0.459,0.348-0.785,0.828-0.98,1.443c-0.293,0.938-0.439,1.963-0.439,3.076v8.145H188.601z"/>
		<path fill="#33359A" d="M208.771,186.768c-0.977,0.83-1.916,1.416-2.819,1.758s-1.872,0.513-2.907,0.513
			c-1.709,0-3.023-0.418-3.941-1.252c-0.918-0.836-1.377-1.902-1.377-3.201c0-0.762,0.174-1.457,0.521-2.088
			c0.347-0.629,0.801-1.135,1.362-1.516s1.193-0.669,1.896-0.864c0.518-0.137,1.299-0.269,2.344-0.396
			c2.129-0.254,3.697-0.557,4.703-0.908c0.01-0.361,0.014-0.591,0.014-0.688c0-1.074-0.248-1.831-0.746-2.271
			c-0.674-0.596-1.676-0.894-3.004-0.894c-1.24,0-2.155,0.218-2.746,0.651c-0.591,0.436-1.027,1.204-1.311,2.308l-2.578-0.352
			c0.234-1.104,0.619-1.995,1.156-2.673c0.537-0.68,1.314-1.201,2.33-1.568c1.016-0.365,2.191-0.549,3.529-0.549
			c1.328,0,2.408,0.156,3.238,0.469s1.439,0.705,1.83,1.18c0.391,0.473,0.664,1.071,0.82,1.794c0.088,0.449,0.133,1.26,0.133,2.432
			v3.516c0,2.451,0.056,4.001,0.168,4.651c0.112,0.648,0.334,1.271,0.666,1.867h-2.754C209.025,188.14,208.85,187.5,208.771,186.768
			z M208.553,180.879c-0.957,0.391-2.393,0.723-4.307,0.996c-1.084,0.156-1.852,0.332-2.301,0.527s-0.795,0.481-1.039,0.856
			c-0.244,0.377-0.367,0.794-0.367,1.253c0,0.703,0.267,1.289,0.799,1.758s1.311,0.703,2.336,0.703c1.016,0,1.92-0.222,2.711-0.667
			c0.791-0.443,1.371-1.052,1.742-1.823c0.283-0.596,0.426-1.475,0.426-2.637V180.879z"/>
		<path fill="#33359A" d="M217.736,188.687h-2.445v-21.475h2.637v7.661c1.113-1.396,2.533-2.095,4.262-2.095
			c0.957,0,1.863,0.193,2.718,0.578c0.854,0.387,1.558,0.928,2.109,1.627c0.552,0.697,0.983,1.54,1.296,2.526
			s0.469,2.041,0.469,3.164c0,2.666-0.658,4.727-1.977,6.182s-2.9,2.183-4.746,2.183c-1.836,0-3.277-0.767-4.322-2.3V188.687z
			 M217.707,180.791c0,1.865,0.254,3.213,0.762,4.043c0.83,1.357,1.953,2.036,3.369,2.036c1.152,0,2.148-0.5,2.988-1.502
			c0.84-1,1.26-2.492,1.26-4.475c0-2.031-0.402-3.53-1.208-4.497s-1.78-1.45-2.923-1.45c-1.152,0-2.148,0.5-2.988,1.502
			C218.127,177.448,217.707,178.896,217.707,180.791z"/>
		<path fill="#33359A" d="M242.141,186.768c-0.977,0.83-1.916,1.416-2.819,1.758s-1.872,0.513-2.907,0.513
			c-1.709,0-3.023-0.418-3.941-1.252c-0.918-0.836-1.377-1.902-1.377-3.201c0-0.762,0.174-1.457,0.521-2.088
			c0.347-0.629,0.801-1.135,1.362-1.516s1.193-0.669,1.896-0.864c0.518-0.137,1.299-0.269,2.344-0.396
			c2.129-0.254,3.697-0.557,4.703-0.908c0.01-0.361,0.014-0.591,0.014-0.688c0-1.074-0.248-1.831-0.746-2.271
			c-0.674-0.596-1.676-0.894-3.004-0.894c-1.24,0-2.155,0.218-2.746,0.651c-0.591,0.436-1.027,1.204-1.311,2.308l-2.578-0.352
			c0.234-1.104,0.619-1.995,1.156-2.673c0.537-0.68,1.314-1.201,2.33-1.568c1.016-0.365,2.191-0.549,3.529-0.549
			c1.328,0,2.408,0.156,3.238,0.469s1.439,0.705,1.83,1.18c0.391,0.473,0.664,1.071,0.82,1.794c0.088,0.449,0.133,1.26,0.133,2.432
			v3.516c0,2.451,0.056,4.001,0.168,4.651c0.112,0.648,0.334,1.271,0.666,1.867h-2.754
			C242.395,188.14,242.219,187.5,242.141,186.768z M241.922,180.879c-0.957,0.391-2.393,0.723-4.307,0.996
			c-1.084,0.156-1.852,0.332-2.301,0.527s-0.795,0.481-1.039,0.856c-0.244,0.377-0.367,0.794-0.367,1.253
			c0,0.703,0.267,1.289,0.799,1.758s1.311,0.703,2.336,0.703c1.016,0,1.92-0.222,2.711-0.667c0.791-0.443,1.371-1.052,1.742-1.823
			c0.283-0.596,0.426-1.475,0.426-2.637V180.879z"/>
		<path fill="#33359A" d="M258.768,188.687v-1.963c-0.986,1.543-2.438,2.314-4.352,2.314c-1.24,0-2.38-0.342-3.42-1.025
			s-1.846-1.639-2.417-2.863c-0.571-1.227-0.856-2.635-0.856-4.227c0-1.553,0.258-2.961,0.775-4.227
			c0.518-1.264,1.295-2.233,2.33-2.907s2.191-1.011,3.471-1.011c0.938,0,1.773,0.197,2.506,0.594
			c0.732,0.395,1.328,0.91,1.787,1.545v-7.705h2.621v21.475H258.768z M250.432,180.923c0,1.992,0.42,3.481,1.26,4.468
			s1.832,1.479,2.975,1.479c1.152,0,2.131-0.471,2.937-1.414c0.806-0.941,1.208-2.38,1.208-4.313c0-2.129-0.41-3.691-1.23-4.688
			s-1.83-1.494-3.031-1.494c-1.172,0-2.151,0.479-2.938,1.436S250.432,178.862,250.432,180.923z"/>
	</g>
</g>
</svg>
